<?xml version="1.0" encoding="iso-8859-1"?>
<!-- Generator: Adobe Illustrator 19.0.0, SVG Export Plug-In . SVG Version: 6.00 Build 0)  -->
<svg version="1.1" id="Capa_1" xmlns="http://www.w3.org/2000/svg" xmlns:xlink="http://www.w3.org/1999/xlink" x="0px" y="0px"
	 viewBox="0 0 512 512" style="enable-background:new 0 0 512 512;" xml:space="preserve">
<g>
<path d="m412.890625 406.53125c7.660156-6.03125 9.601563-16.828125 4.566406-25.175781-13.917969-23.070313-8.808593-34.152344-31.160156-62.535157-26.402344-33.535156-38.328125-24.144531-64.730469-57.679687-26.40625-33.53125-14.484375-42.917969-40.890625-76.449219-26.40625-33.535156-38.328125-24.144531-64.734375-57.679687-26.410156-33.535157-14.488281-42.921875-40.894531-76.457031-22.351563-28.382813-34.328125-26.019532-53.492187-44.957032-6.933594-6.855468-17.882813-7.496094-25.542969-1.464844l-88.15625 69.421876c-9.507813 7.488281-9.84375 21.75-.746094 29.726562 16.714844 14.660156 28.5 14.707031 49.09375 40.859375 26.410156 33.535156 14.488281 42.921875 40.894531 76.457031s38.328125 24.144532 64.734375 57.679688c26.40625 33.53125 14.484375 42.917968 40.890625 76.453125 26.40625 33.53125 38.328125 24.144531 64.734375 57.675781 20.589844 26.148438 17.875 37.617188 28.203125 57.300781 5.621094 10.714844 19.566406 13.730469 29.074219 6.246094zm0 0" fill="#d33737"/>
<path d="m7.847656 73.550781 67.316406-52.996093-67.503906 53.15625c.0625-.058594.128906-.109376.1875-.160157zm0 0" fill="#99170a"/>
<path d="m121.550781 5.597656c19.167969 18.9375 31.148438 16.570313 53.5 44.953125 26.398438 33.535157 14.480469 42.929688 40.890625 76.464844 26.402344 33.527344 38.328125 24.144531 64.738282 57.671875 26.398437 33.535156 14.480468 42.917969 40.882812 76.453125 26.40625 33.539063 38.324219 24.144531 64.734375 57.679687 22.355469 28.386719 17.242187 39.464844 31.15625 62.539063 5.035156 8.347656 3.097656 19.136719-4.558594 25.167969l-20.855469 16.421875c7.65625-6.03125 9.605469-16.828125 4.570313-25.175781-13.921875-23.066407-8.8125-34.152344-31.164063-62.53125-26.402343-33.53125-38.328124-24.148438-64.726562-57.675782-26.410156-33.535156-14.492188-42.921875-40.894531-76.457031-26.40625-33.535156-38.324219-24.140625-64.734375-57.679687-26.410156-33.535157-14.484375-42.917969-40.890625-76.453126-22.355469-28.386718-34.332031-26.015624-53.488281-44.960937-6.933594-6.855469-17.886719-7.492187-25.546876-1.460937l20.855469-16.421876c7.65625-6.03125 18.597657-5.386718 25.53125 1.464844zm0 0" fill="#c42626"/>
<path d="m70.695312 24.070312c26.410157 33.535157 38.328126 24.144532 64.738282 57.679688 26.40625 33.535156 14.484375 42.921875 40.894531 76.457031 26.40625 33.53125 38.328125 24.144531 64.734375 57.679688 26.402344 33.53125 14.480469 42.917969 40.886719 76.449219 26.40625 33.535156 38.328125 24.144531 64.734375 57.679687 26.40625 33.53125 14.484375 42.917969 40.890625 76.449219l-39.613281 31.195312c-26.40625-33.53125-14.484376-42.917968-40.890626-76.449218-26.40625-33.535157-38.328124-24.148438-64.734374-57.679688s-14.484376-42.917969-40.890626-76.453125c-26.40625-33.53125-38.328124-24.144531-64.734374-57.675781-26.40625-33.535156-14.484376-42.921875-40.894532-76.457032-26.40625-33.535156-38.328125-24.144531-64.734375-57.679687zm0 0" fill="#ffc1b8"/>
<path d="m70.695312 24.074219c26.410157 33.527343 38.328126 24.140625 64.734376 57.679687 26.410156 33.535156 14.492187 42.917969 40.894531 76.453125 26.40625 33.535157 38.335937 24.144531 64.734375 57.679688 26.410156 33.527343 14.484375 42.921875 40.894531 76.449219 26.40625 33.535156 38.324219 24.148437 64.734375 57.675781 26.398438 33.535156 14.484375 42.921875 40.882812 76.457031l-15.734374 12.390625c-26.398438-33.535156-14.484376-42.917969-40.882813-76.457031-26.410156-33.523438-38.328125-24.140625-64.738281-57.675782-26.410156-33.527343-14.480469-42.921874-40.890625-76.449218-26.402344-33.535156-38.328125-24.140625-64.738281-57.675782-26.398438-33.535156-14.480469-42.921874-40.890626-76.457031-26.410156-33.539062-38.324218-24.15625-64.734374-57.679687zm0 0" fill="#ffb3a8"/>
<path d="m124.320312 506.351562c6.894532 6.898438 17.839844 7.550782 25.535157 1.5625 21.265625-16.542968 32.875-12.777343 58.421875-38.324218 30.179687-30.179688 19.449218-40.910156 49.628906-71.089844s40.910156-19.449219 71.089844-49.628906c30.183594-30.183594 19.453125-40.910156 49.632812-71.09375 30.183594-30.179688 40.914063-19.449219 71.09375-49.632813 25.546875-25.546875 21.785156-37.160156 38.328125-58.425781 5.988281-7.695312 5.335938-18.640625-1.558593-25.535156l-79.347657-79.347656c-8.554687-8.554688-22.757812-7.203126-29.605469 2.769531-12.585937 18.328125-11.242187 30.035156-34.777343 53.574219-30.183594 30.183593-40.914063 19.453124-71.09375 49.636718-30.183594 30.179688-19.453125 40.910156-49.632813 71.089844-30.179687 30.179688-40.910156 19.449219-71.089844 49.628906-30.179687 30.179688-19.453124 40.910156-49.632812 71.089844-23.535156 23.535156-35.242188 22.191406-53.570312 34.773438-9.972657 6.847656-11.324219 21.050781-2.769532 29.605468zm0 0" fill="#d33737"/>
<path d="m407.144531 64.832031 60.574219 60.585938-60.753906-60.757813c.066406.058594.125.113282.179687.171875zm0 0" fill="#99170a"/><path d="m488.046875 169.714844c-16.539063 21.269531-12.773437 32.882812-38.320313 58.433594-30.183593 30.171874-40.921874 19.449218-71.101562 49.632812-30.175781 30.171875-19.449219 40.90625-49.625 71.09375-30.183594 30.171875-40.910156 19.445312-71.09375 49.621094-30.183594 30.183594-19.449219 40.910156-49.632812 71.09375-25.546876 25.546875-37.152344 21.78125-58.421876 38.320312-7.695312 5.988282-18.636718 5.335938-25.53125-1.554687l-18.769531-18.769531c6.894531 6.890624 17.847657 7.550781 25.539063 1.566406 21.265625-16.550782 32.875-12.785156 58.414062-38.332032 30.183594-30.175781 19.460938-40.910156 49.632813-71.085937 30.183593-30.183594 40.910156-19.457031 71.09375-49.632813 30.183593-30.183593 19.449219-40.90625 49.632812-71.089843 30.183594-30.1875 40.910157-19.449219 71.09375-49.632813 25.546875-25.550781 21.78125-37.164062 38.332031-58.425781 5.984376-7.695313 5.324219-18.644531-1.566406-25.539063l18.769532 18.769532c6.890624 6.894531 7.542968 17.835937 1.554687 25.53125zm0 0" fill="#c42626"/>
<path d="m463.703125 121.394531c-30.183594 30.183594-19.453125 40.914063-49.636719 71.09375-30.179687 30.183594-40.910156 19.453125-71.09375 49.636719-30.179687 30.179688-19.449218 40.910156-49.632812 71.089844-30.179688 30.179687-40.910156 19.449218-71.089844 49.628906s-19.449219 40.910156-49.628906 71.089844c-30.179688 30.179687-40.910156 19.453125-71.089844 49.632812l-35.65625-35.65625c30.179688-30.179687 40.910156-19.449218 71.089844-49.628906 30.183594-30.179688 19.453125-40.910156 49.632812-71.089844 30.179688-30.179687 40.910156-19.449218 71.089844-49.628906 30.179688-30.183594 19.449219-40.914062 49.632812-71.09375 30.179688-30.179688 40.910157-19.449219 71.09375-49.632812 30.179688-30.183594 19.453126-40.914063 49.632813-71.09375zm0 0" fill="#ffc1b8"/>
<path d="m463.699219 121.394531c-30.175781 30.183594-19.449219 40.910157-49.632813 71.09375-30.183594 30.183594-40.910156 19.457031-71.09375 49.632813-30.183594 30.183594-19.449218 40.917968-49.632812 71.09375-30.175782 30.183594-40.910156 19.449218-71.085938 49.632812-30.183594 30.183594-19.457031 40.910156-49.632812 71.09375-30.183594 30.171875-40.90625 19.449219-71.089844 49.621094l-14.164062-14.160156c30.183593-30.175782 40.910156-19.449219 71.09375-49.625 30.171874-30.183594 19.449218-40.910156 49.632812-71.09375 30.175781-30.183594 40.910156-19.449219 71.082031-49.632813 30.1875-30.171875 19.449219-40.90625 49.636719-71.089843 30.183594-30.175782 40.90625-19.449219 71.089844-49.636719 30.183594-30.183594 19.460937-40.90625 49.632812-71.089844zm0 0" fill="#ffb3a8"/>
</g>
</svg>